# xmcd
#
# Track frame offsets: 
#        150
#        21187
#        35502
#        50682
#        60950
#        78912
#        92280
#        110920
#        129400
#        148397
#        169555
#        180785
#
# Disc length: 2617 seconds
#
# Revision: 2
# Processed by: cddbd v1.5.2PL0 Copyright (c) Steve Scherf et al.
# Submitted via: ExactAudioCopy v0.99pb4
#
DISCID=940a370c
DTITLE=Michael Hedges - Platinum and Gold Collection
DYEAR=2003
DGENRE=New Age
TTITLE0=Aerial Boundaries
TTITLE1=Because It s There
TTITLE2=The Double Planet
TTITLE3=Ritual Dance
TTITLE4=Tomorrow Never Knows
TTITLE5=All Along the Watchtower
TTITLE6=After the Gold Rush
TTITLE7=Oracle
TTITLE8=Woman of the World
TTITLE9=Two Days Old
TTITLE10=Bensusan
TTITLE11=Ignition
EXTD=YEAR: 2003
EXTT0=
EXTT1=
EXTT2=
EXTT3=
EXTT4=
EXTT5=
EXTT6=
EXTT7=
EXTT8=
EXTT9=
EXTT10=
EXTT11=
PLAYORDER=
